<svg  viewBox="0 0 98 63" fill="none" xmlns="http://www.w3.org/2000/svg">
<path d="M40.3743 0.833414C40.2024 1.32072 40.3743 3.91968 40.7754 6.68108C41.6922 12.6912 42.1506 21.6251 41.6349 24.7114L41.2911 26.9313L38.025 25.8484C32.8679 24.1699 27.539 21.6793 24.9032 19.6218C22.4965 17.835 22.4392 17.6725 22.4392 14.5321C22.4392 11.7166 22.3246 11.2834 21.4651 11.4458C20.3191 11.6624 19.8607 14.2072 20.4337 17.1311C20.6629 18.4306 21.5797 19.4593 24.1582 21.3544C25.9919 22.708 27.6536 23.7909 27.8828 23.7909C28.0547 23.7909 29.831 24.4948 31.7792 25.3611C33.7274 26.2275 36.5352 27.3645 38.0823 27.8518C40.6608 28.7723 40.7754 28.8806 40.7754 30.8839C40.7754 32.8332 40.5462 33.1039 37.5093 34.999C33.1544 37.7062 16.8238 48.8601 9.26011 54.3287C1.29534 60.0681 -0.595582 61.7466 0.149325 62.6129C0.836931 63.371 2.04024 63.0461 4.38956 61.3676C5.36367 60.7179 8.5725 59.2559 11.5521 58.1189C14.5318 56.9819 18.9439 54.9243 21.2932 53.5166C23.6998 52.1088 27.8828 49.8347 30.6332 48.4269L35.6184 45.8821V48.8601C35.6184 50.8093 35.9049 52.0547 36.4779 52.4878C37.9677 53.6249 40.7754 52.542 43.755 49.6181C45.8179 47.6689 46.7347 47.0733 47.1931 47.5065C48.3964 48.6435 49.3705 47.1274 49.3705 44.3119C49.3705 41.2256 50.9749 37.2189 52.1782 37.4355C52.6366 37.5438 53.2669 38.3559 53.6107 39.3306C54.814 42.6334 55.387 42.5793 57.851 38.8974C60.8306 34.5116 60.4868 34.0243 54.9286 34.2951C52.0636 34.4575 50.6884 34.7824 50.1727 35.378C49.657 36.136 49.4851 35.9194 49.1986 34.2409C49.0267 33.1039 48.7402 31.8044 48.5683 31.3712C48.1099 30.2342 60.8306 22.5456 81.1723 11.6083C96.758 3.2158 97.7894 2.6202 97.4456 1.64559C97.1591 0.941704 66.9617 17.1852 55.9027 23.9534C51.6052 26.6065 47.7088 28.8806 47.3077 29.043C46.7347 29.2596 46.5055 28.7723 46.5055 27.2562C46.5055 26.065 46.1044 23.4119 45.5886 21.3544C45.0729 19.2427 44.4426 14.3697 44.2134 10.5254C43.9842 6.62694 43.4685 2.67435 43.0674 1.69974C42.3225 -0.141197 40.9473 -0.574358 40.3743 0.833414ZM44.6718 27.1479C44.5572 27.6894 44.2134 27.9601 43.8123 27.6894C43.4112 27.4186 43.2966 26.3899 43.5258 24.6031L43.8696 21.8958L44.328 24.0616C44.6145 25.2528 44.7291 26.6606 44.6718 27.1479ZM43.6404 31.3712C42.609 31.9668 42.2652 31.6961 42.7236 30.5049C43.0101 29.7469 43.2393 29.6927 43.8123 30.2342C44.328 30.7215 44.328 30.9922 43.6404 31.3712ZM45.8752 36.5692C45.9325 38.6808 45.8179 38.8433 42.9528 40.3593C41.2911 41.2256 39.744 41.9837 39.5148 42.092C39.2856 42.2002 39.4575 41.6047 39.9159 40.7383C40.3743 39.9262 41.1765 37.9769 41.6922 36.4609C42.2652 34.6741 43.0674 33.4829 43.8696 33.1039C45.3594 32.5083 45.8179 33.3205 45.8752 36.5692ZM37.8531 40.4135C36.0768 43.6622 35.5611 44.0953 31.8938 45.9363C29.6591 47.0192 25.5335 49.2391 22.7257 50.8635C19.918 52.4878 15.7351 54.5453 13.3857 55.5199C11.0937 56.4404 9.03091 57.415 8.85901 57.5774C8.6298 57.7399 8.286 57.9023 7.9422 57.9023C7.19729 57.9023 11.6094 54.7078 24.8459 45.6114C38.9418 35.8653 39.2856 35.7028 39.5721 36.3526C39.6867 36.6774 38.8845 38.4642 37.8531 40.4135ZM56.8196 36.4609C56.8196 36.5692 56.6477 37.0565 56.4758 37.5438C55.96 38.7891 55.1005 38.6267 55.1005 37.3272C55.1005 36.7316 55.5016 36.2443 55.96 36.2443C56.4185 36.2443 56.8196 36.3526 56.8196 36.4609ZM46.5055 42.092C46.5055 43.8787 44.1561 47.1816 41.4057 49.4015C38.4834 51.7298 37.7958 51.4049 38.025 47.7772C38.1969 44.6909 38.2542 44.6368 40.6608 43.3914C42.036 42.7417 43.755 41.8212 44.3853 41.3881C46.1044 40.251 46.5055 40.3593 46.5055 42.092Z" fill="black"/>
</svg>
